<mxfile host="Electron" agent="Mozilla/5.0 (X11; Linux x86_64) AppleWebKit/537.36 (KHTML, like Gecko) draw.io/28.2.5 Chrome/138.0.7204.251 Electron/37.6.1 Safari/537.36" version="28.2.5">
  <diagram name="第 1 页" id="A2wYnKDMZFF023bxGnZ8">
    <mxGraphModel dx="2006" dy="1126" grid="1" gridSize="10" guides="1" tooltips="1" connect="1" arrows="1" fold="1" page="1" pageScale="1" pageWidth="827" pageHeight="1169" background="none" math="0" shadow="0">
      <root>
        <mxCell id="0" />
        <mxCell id="1" parent="0" />
        <mxCell id="8HlDPOHAcPrSxFD7tWNl-6" value="" style="rounded=0;whiteSpace=wrap;html=1;fontSize=20;" parent="1" vertex="1">
          <mxGeometry x="20" y="180" width="1250" height="970" as="geometry" />
        </mxCell>
        <mxCell id="-QrxRBGIXTvyxB3OS5xk-1" value="AbstractApplicationContext" style="shape=umlLifeline;whiteSpace=wrap;html=1;container=1;dropTarget=0;collapsible=0;recursiveResize=0;outlineConnect=0;portConstraint=eastwest;newEdgeStyle={&quot;curved&quot;:0,&quot;rounded&quot;:0};fontSize=20;fontStyle=0;points=[[0,0,0,0,5],[0,1,0,0,-5],[1,0,0,0,5],[1,1,0,0,-5]];perimeter=rectanglePerimeter;targetShapes=umlLifeline;participant=label;fontColor=default;" parent="1" vertex="1">
          <mxGeometry x="180" y="210" width="297" height="840" as="geometry" />
        </mxCell>
        <mxCell id="-QrxRBGIXTvyxB3OS5xk-2" value="" style="html=1;points=[[0,0,0,0,5],[0,1,0,0,-5],[1,0,0,0,5],[1,1,0,0,-5]];perimeter=orthogonalPerimeter;outlineConnect=0;targetShapes=umlLifeline;portConstraint=eastwest;newEdgeStyle={&quot;curved&quot;:0,&quot;rounded&quot;:0};fontSize=20;" parent="-QrxRBGIXTvyxB3OS5xk-1" vertex="1">
          <mxGeometry x="143.5" y="130" width="10" height="650" as="geometry" />
        </mxCell>
        <mxCell id="-QrxRBGIXTvyxB3OS5xk-56" value="&lt;span style=&quot;text-align: left;&quot;&gt;prepareBeanFactory&lt;/span&gt;()" style="html=1;verticalAlign=bottom;endArrow=block;curved=0;rounded=0;entryX=0;entryY=0;entryDx=0;entryDy=5;fontSize=20;fontStyle=0;fontColor=#000000;" parent="1" edge="1">
          <mxGeometry relative="1" as="geometry">
            <mxPoint x="35" y="365" as="sourcePoint" />
            <mxPoint x="323" y="365" as="targetPoint" />
          </mxGeometry>
        </mxCell>
        <mxCell id="-QrxRBGIXTvyxB3OS5xk-58" value="AbstractApplicationContext.&lt;span style=&quot;text-align: left; text-wrap-mode: nowrap; background-color: rgb(255, 255, 255);&quot;&gt;prepareBeanFactory&lt;/span&gt;&lt;span style=&quot;background-color: transparent; color: light-dark(rgb(0, 0, 0), rgb(255, 255, 255));&quot;&gt;方法&lt;/span&gt;" style="text;html=1;whiteSpace=wrap;strokeColor=none;fillColor=none;align=center;verticalAlign=middle;rounded=0;fontSize=20;fontStyle=1" parent="1" vertex="1">
          <mxGeometry x="300" y="1070" width="690" height="70" as="geometry" />
        </mxCell>
        <mxCell id="nxMJKHngHIf2koic3vLr-1" value="&lt;div&gt;包含以下逻辑：&lt;/div&gt;&lt;div&gt;设置类加载器：AppClassLoader，&lt;/div&gt;&lt;div&gt;设置SPEL表达式解析器：StandardBeanExpressionResolver，&lt;/div&gt;&lt;div&gt;添加资源编辑器注册器：ResourceEditorRegistrar，&lt;/div&gt;&lt;div&gt;添加&lt;span style=&quot;background-color: transparent; color: light-dark(rgb(0, 0, 0), rgb(255, 255, 255));&quot;&gt;BeanPostProcessor：&lt;/span&gt;&lt;span style=&quot;background-color: transparent; color: light-dark(rgb(0, 0, 0), rgb(255, 255, 255));&quot;&gt;ApplicationContextAwareProcessor，处理Aware接口回调，&lt;/span&gt;&lt;/div&gt;&lt;div&gt;忽略依赖注入接口：EnvironmentAware，&lt;/div&gt;&lt;div&gt;忽略依赖注入接口：EmbeddedValueResolverAware，&lt;/div&gt;&lt;div&gt;忽略依赖注入接口：ResourceLoaderAware，&lt;/div&gt;&lt;div&gt;忽略依赖注入接口：ApplicationEventPublisherAware，&lt;/div&gt;&lt;div&gt;忽略依赖注入接口：MessageSourceAware，&lt;/div&gt;&lt;div&gt;忽略依赖注入接口：ApplicationContextAware，&lt;/div&gt;&lt;div&gt;忽略依赖注入接口：ApplicationStartupAware，&lt;/div&gt;&lt;div&gt;注册可解析的依赖：BeanFactory，&lt;/div&gt;&lt;div&gt;注册可解析的依赖：ResourceLoader，&lt;/div&gt;&lt;div&gt;注册可解析的依赖：ApplicationEventPublisher，&lt;/div&gt;&lt;div&gt;注册可解析的依赖：ApplicationContext，&lt;/div&gt;&lt;div&gt;添加&lt;span style=&quot;background-color: transparent; color: light-dark(rgb(0, 0, 0), rgb(255, 255, 255));&quot;&gt;BeanPostProcessor：&lt;/span&gt;&lt;span style=&quot;background-color: transparent; color: light-dark(rgb(0, 0, 0), rgb(255, 255, 255));&quot;&gt;ApplicationListenerDetector，&lt;/span&gt;&lt;span style=&quot;background-color: transparent;&quot;&gt;应用监听检测器&lt;/span&gt;&lt;/div&gt;&lt;div&gt;添加&lt;span style=&quot;color: light-dark(rgb(0, 0, 0), rgb(255, 255, 255)); background-color: transparent;&quot;&gt;BeanPostProcessor：&lt;/span&gt;&lt;span style=&quot;background-color: transparent;&quot;&gt;LoadTimeWeaverAwareProcessor，加载时织入，&lt;/span&gt;&lt;span style=&quot;background-color: transparent; color: light-dark(rgb(0, 0, 0), rgb(255, 255, 255));&quot;&gt;&lt;/span&gt;&lt;/div&gt;&lt;div&gt;&lt;span style=&quot;background-color: transparent;&quot;&gt;注册单例Bean：&lt;/span&gt;&lt;span style=&quot;background-color: transparent;&quot;&gt;environment(&lt;/span&gt;&lt;span style=&quot;background-color: transparent;&quot;&gt;ApplicationEnvironment&lt;/span&gt;&lt;span style=&quot;background-color: transparent; color: light-dark(rgb(0, 0, 0), rgb(255, 255, 255));&quot;&gt;)，&lt;/span&gt;&lt;/div&gt;&lt;div&gt;&lt;span style=&quot;background-color: transparent;&quot;&gt;注册单例Bean：&lt;/span&gt;&lt;span style=&quot;background-color: transparent;&quot;&gt;systemProperties(&lt;/span&gt;&lt;span style=&quot;background-color: transparent;&quot;&gt;Properties&lt;/span&gt;&lt;span style=&quot;background-color: transparent; color: light-dark(rgb(0, 0, 0), rgb(255, 255, 255));&quot;&gt;)，&lt;/span&gt;&lt;/div&gt;&lt;div&gt;&lt;span style=&quot;background-color: transparent;&quot;&gt;注册单例Bean：&lt;/span&gt;&lt;span style=&quot;background-color: transparent;&quot;&gt;systemEnvironment(UnmodifiableMap)，&lt;/span&gt;&lt;/div&gt;&lt;div&gt;&lt;span style=&quot;background-color: transparent;&quot;&gt;注册单例Bean：&lt;/span&gt;&lt;span style=&quot;background-color: transparent;&quot;&gt;applicationStartup(&lt;/span&gt;&lt;span style=&quot;background-color: transparent;&quot;&gt;DefaultApplicationStartup&lt;/span&gt;&lt;span style=&quot;background-color: transparent; color: light-dark(rgb(0, 0, 0), rgb(255, 255, 255));&quot;&gt;)&lt;/span&gt;&lt;/div&gt;" style="html=1;whiteSpace=wrap;fontSize=20;strokeWidth=0;align=left;verticalAlign=top;" vertex="1" parent="1">
          <mxGeometry x="350" y="370" width="834.28" height="538" as="geometry" />
        </mxCell>
      </root>
    </mxGraphModel>
  </diagram>
</mxfile>
